# xmcd
#
# Track frame offsets: 
#        150
#        16040
#        34695
#        52585
#        72802
#        96162
#        114255
#        140230
#        159390
#        179712
#        197905
#        226397
#        255175
#
# Disc length: 3406 seconds
#
# Revision: 0
# Processed by: cddbd v1.4PL0 Copyright (c) Steve Scherf et al.
# Submitted via: ExactAudioCopy v0.90b4
#
DISCID=a20d4c0d
DTITLE=12 Bars From Mars - The Planet Rocks
DYEAR=1997
DGENRE=Blues
TTITLE0=Shake and Fingerpop
TTITLE1=Ain't No Mistake
TTITLE2=Ratman
TTITLE3=One More Mile
TTITLE4=Far Too Late
TTITLE5=Growing Pains
TTITLE6=Jazz Pays Better Than Blues
TTITLE7=Spoonful
TTITLE8=Heasdwind
TTITLE9=Over You
TTITLE10=The Fool
TTITLE11=Two Angels Too Many
TTITLE12=End
EXTD=
EXTT0=
EXTT1=
EXTT2=
EXTT3=
EXTT4=
EXTT5=
EXTT6=
EXTT7=
EXTT8=
EXTT9=
EXTT10=
EXTT11=
EXTT12=
PLAYORDER=
